<?xml version="1.0" encoding="UTF-8"?>
<svg width="388px" height="288px" viewBox="0 0 388 288" version="1.1" xmlns="http://www.w3.org/2000/svg" xmlns:xlink="http://www.w3.org/1999/xlink">
    <title>img_board_export_default</title>
    <g id="页面-1" stroke="none" stroke-width="1" fill="none" fill-rule="evenodd">
        <g id="我的盘活-数据流配置-输出节点-配置面板-数据预览-无连接" transform="translate(-676.000000, -548.000000)">
            <g id="img_board_export_default" transform="translate(676.000000, 548.000000)">
                <rect id="矩形" fill-opacity="0" fill="#D8D8D8" x="0" y="0" width="388" height="288"></rect>
                <g id="编组-21" transform="translate(20.000000, 96.000000)">
                    <text id="请将-1-个节点连接至本节点" font-family="PingFangSC-Regular, PingFang SC" font-size="14" font-weight="normal" line-spacing="20" fill="#FF4D4F">
                        <tspan x="89" y="91">请将 1 个节点连接至本节点</tspan>
                    </text>
                    <g id="编组-7备份-14" transform="translate(228.000000, 0.000000)">
                        <path d="M116,0.5 C116.966498,0.5 117.841498,0.891750844 118.474874,1.52512627 C119.108249,2.15850169 119.5,3.03350169 119.5,4 L119.5,32 C119.5,32.9664983 119.108249,33.8414983 118.474874,34.4748737 C117.841498,35.1082492 116.966498,35.5 116,35.5 L4,35.5 C3.03350169,35.5 2.15850169,35.1082492 1.52512627,34.4748737 C0.891750844,33.8414983 0.5,32.9664983 0.5,32 L0.5,4 C0.5,3.03350169 0.891750844,2.15850169 1.52512627,1.52512627 C2.15850169,0.891750844 3.03350169,0.5 4,0.5 Z" id="Rectangle备份-2" stroke="#91D5FF" fill="#E6F7FF"></path>
                        <path d="M38,10 L106,10 C107.104569,10 108,10.8954305 108,12 L108,24 C108,25.1045695 107.104569,26 106,26 L38,26 C36.8954305,26 36,25.1045695 36,24 L36,12 C36,10.8954305 36.8954305,10 38,10 Z" id="Rectangle备份-2" fill-opacity="0.15" fill="#46A7FF"></path>
                        <g id="export" transform="translate(12.000000, 10.000000)" fill-rule="nonzero">
                            <rect id="矩形" fill="#000000" opacity="0" x="0" y="0" width="16" height="16"></rect>
                            <path d="M13.8796875,11.834375 L13.0390625,11.834375 C12.9734375,11.834375 12.91875,11.8890625 12.91875,11.9546875 L12.91875,12.9203125 L3.0796875,12.9203125 L3.0796875,3.0796875 L12.9203125,3.0796875 L12.9203125,4.0453125 C12.9203125,4.1109375 12.975,4.165625 13.040625,4.165625 L13.88125,4.165625 C13.946875,4.165625 14.0015625,4.1125 14.0015625,4.0453125 L14.0015625,2.4796875 C14.0015625,2.2140625 13.7875,2 13.521875,2 L2.4796875,2 C2.2140625,2 2,2.2140625 2,2.4796875 L2,13.5203125 C2,13.7859375 2.2140625,14 2.4796875,14 L13.5203125,14 C13.7859375,14 14,13.7859375 14,13.5203125 L14,11.9546875 C14,11.8875 13.9453125,11.834375 13.8796875,11.834375 Z M5.905,8.62560123 L11.03,8.62560123 L11.03,10.1599762 C11.03,10.2865387 11.1784375,10.3599762 11.276875,10.2802887 L13.9721875,8.15216373 C14.0503125,8.09122623 14.0503125,7.97403873 13.9721875,7.91310123 L11.276875,5.78341373 C11.176875,5.70372623 11.03,5.77560123 11.03,5.90372623 L11.03,7.43810123 L5.905,7.43810123 C5.83625,7.43810123 5.78,7.49435123 5.78,7.56310123 L5.78,8.50060123 C5.78,8.56935123 5.83625,8.62560123 5.905,8.62560123 Z" id="形状" fill="#46A7FF"></path>
                        </g>
                    </g>
                    <g id="编组-7备份-15">
                        <path d="M116,0.5 C116.966498,0.5 117.841498,0.891750844 118.474874,1.52512627 C119.108249,2.15850169 119.5,3.03350169 119.5,4 L119.5,32 C119.5,32.9664983 119.108249,33.8414983 118.474874,34.4748737 C117.841498,35.1082492 116.966498,35.5 116,35.5 L4,35.5 C3.03350169,35.5 2.15850169,35.1082492 1.52512627,34.4748737 C0.891750844,33.8414983 0.5,32.9664983 0.5,32 L0.5,4 C0.5,3.03350169 0.891750844,2.15850169 1.52512627,1.52512627 C2.15850169,0.891750844 3.03350169,0.5 4,0.5 Z" id="Rectangle备份-2" stroke="#91D5FF" fill="#E6F7FF"></path>
                        <path d="M38,10 L106,10 C107.104569,10 108,10.8954305 108,12 L108,24 C108,25.1045695 107.104569,26 106,26 L38,26 C36.8954305,26 36,25.1045695 36,24 L36,12 C36,10.8954305 36.8954305,10 38,10 Z" id="Rectangle备份-2" fill-opacity="0.15" fill="#46A7FF"></path>
                        <path d="M14,10 L26,10 C27.1045695,10 28,10.8954305 28,12 L28,24 C28,25.1045695 27.1045695,26 26,26 L14,26 C12.8954305,26 12,25.1045695 12,24 L12,12 C12,10.8954305 12.8954305,10 14,10 Z" id="Rectangle备份-6" fill-opacity="0.15" fill="#46A7FF"></path>
                    </g>
                    <g id="编组-18" transform="translate(116.000000, 14.000000)" stroke="#FF4D4F" stroke-width="2">
                        <polygon id="三角形" fill="#FFFFFF" transform="translate(112.000000, 4.000000) rotate(-270.000000) translate(-112.000000, -4.000000) " points="112 0 116 8 108 8"></polygon>
                        <line x1="7.5" y1="4" x2="107.5" y2="4" id="直线备份-2" stroke-linecap="square" stroke-linejoin="round" stroke-dasharray="3,6"></line>
                        <circle id="椭圆形" fill="#FFFFFF" cx="4" cy="4" r="4"></circle>
                    </g>
                </g>
            </g>
        </g>
    </g>
</svg>