<?xml version="1.0" standalone="no"?><!DOCTYPE svg PUBLIC "-//W3C//DTD SVG 1.1//EN" "http://www.w3.org/Graphics/SVG/1.1/DTD/svg11.dtd"><svg t="1703816519299" class="icon" viewBox="0 0 1024 1024" version="1.1" xmlns="http://www.w3.org/2000/svg" p-id="10179" xmlns:xlink="http://www.w3.org/1999/xlink" width="200" height="200"><path d="M0 0h1024v1024H0z" fill="#000000" fill-opacity="0" p-id="10180"></path><path d="M886.016 679.68l20.096 32.768a12.8 12.8 0 0 1-4.224 17.6l-366.464 224.768a44.8 44.8 0 0 1-46.912 0L122.24 730.048a12.8 12.8 0 0 1-4.224-17.6l20.096-32.768a12.8 12.8 0 0 1 13.824-5.76l3.776 1.6 356.288 218.56 356.48-218.624a12.8 12.8 0 0 1 17.6 4.224z m0-200.832l20.096 32.768a12.8 12.8 0 0 1-4.224 17.6L535.424 753.92a44.8 44.8 0 0 1-46.912 0L122.24 529.28a12.8 12.8 0 0 1-4.224-17.6l20.096-32.768a12.8 12.8 0 0 1 13.824-5.76l3.776 1.6 356.288 218.56 356.48-218.624a12.8 12.8 0 0 1 17.6 4.224zM532.096 76.16l347.456 213.952c6.656 4.864 6.656 4.864 11.52 11.52a35.2 35.2 0 0 1-11.52 48.384L532.096 563.968a38.4 38.4 0 0 1-40.32 0L144.448 349.952c-6.656-4.864-6.656-4.864-11.52-11.52a35.2 35.2 0 0 1 11.52-48.384l347.456-213.952a38.4 38.4 0 0 1 40.32 0z m-19.584 62.464L217.728 320 512 501.12 806.208 320 512.512 138.56z" fill="==" p-id="10181"></path></svg>