<?xml version="1.0" encoding="UTF-8"?>
<svg width="16px" height="16px" viewBox="0 0 16 16" version="1.1" xmlns="http://www.w3.org/2000/svg" xmlns:xlink="http://www.w3.org/1999/xlink">
    <title>icon_folderOpen</title>
    <g id="页面-1" stroke="none" stroke-width="1" fill="none" fill-rule="evenodd">
        <g id="我的盘活-数据流配置-选择输入源" transform="translate(-142.000000, -304.000000)">
            <g id="编组-4" transform="translate(110.000000, 166.000000)">
                <g id="编组-3" transform="translate(20.000000, 132.000000)">
                    <g id="icon_folderOpen" transform="translate(12.000000, 6.000000)">
                        <polygon id="Rectangle备份-2" fill-opacity="0" fill="#000000" points="0 0 16 -1.03625442e-13 16 16 -4.6891677e-14 16"></polygon>
                        <path d="M14.5,7.0625 L12.8125,7.0625 L12.8125,5.2875 C12.8125,5.0109375 12.5890625,4.7875 12.3125,4.7875 L7.390625,4.7875 L5.5578125,3.034375 C5.534375,3.0125 5.503125,3 5.471875,3 L1.5,3 C1.2234375,3 1,3.2234375 1,3.5 L1,12.75 C1,13.0265625 1.2234375,13.25 1.5,13.25 L12.40625,13.25 C12.609375,13.25 12.79375,13.1265625 12.8703125,12.9375 L14.9640625,7.75 C14.9875,7.690625 15,7.6265625 15,7.5625 C15,7.2859375 14.7765625,7.0625 14.5,7.0625 Z M11.6875,7.0625 L3.71875,7.0625 C3.515625,7.0625 3.33125,7.1859375 3.2546875,7.375 L2.125,10.175 L2.125,4.125 L5.0703125,4.125 L6.9390625,5.9125 L11.6875,5.9125 L11.6875,7.0625 Z" id="形状" fill="#FAAD14" fill-rule="nonzero"></path>
                    </g>
                </g>
            </g>
        </g>
    </g>
</svg>