<?xml version="1.0" encoding="UTF-8"?>
<svg width="16px" height="16px" viewBox="0 0 16 16" version="1.1" xmlns="http://www.w3.org/2000/svg" xmlns:xlink="http://www.w3.org/1999/xlink">
    <title>icon_node_export</title>
    <g id="页面-1" stroke="none" stroke-width="1" fill="none" fill-rule="evenodd">
        <g id="我的盘活-数据流配置-全屏" transform="translate(-44.000000, -226.000000)" fill="==" fill-rule="nonzero">
            <g id="编组-4" transform="translate(12.000000, 68.000000)">
                <g id="编组备份-26" transform="translate(20.000000, 148.000000)">
                    <g id="icon_node_export" transform="translate(12.000000, 10.000000)">
                        <rect id="矩形" fill-opacity="0" x="0" y="0" width="16" height="16"></rect>
                        <path d="M13.8796875,11.834375 L13.0390625,11.834375 C12.9734375,11.834375 12.91875,11.8890625 12.91875,11.9546875 L12.91875,12.9203125 L3.0796875,12.9203125 L3.0796875,3.0796875 L12.9203125,3.0796875 L12.9203125,4.0453125 C12.9203125,4.1109375 12.975,4.165625 13.040625,4.165625 L13.88125,4.165625 C13.946875,4.165625 14.0015625,4.1125 14.0015625,4.0453125 L14.0015625,2.4796875 C14.0015625,2.2140625 13.7875,2 13.521875,2 L2.4796875,2 C2.2140625,2 2,2.2140625 2,2.4796875 L2,13.5203125 C2,13.7859375 2.2140625,14 2.4796875,14 L13.5203125,14 C13.7859375,14 14,13.7859375 14,13.5203125 L14,11.9546875 C14,11.8875 13.9453125,11.834375 13.8796875,11.834375 Z M5.905,8.62560123 L11.03,8.62560123 L11.03,10.1599762 C11.03,10.2865387 11.1784375,10.3599762 11.276875,10.2802887 L13.9721875,8.15216373 C14.0503125,8.09122623 14.0503125,7.97403873 13.9721875,7.91310123 L11.276875,5.78341373 C11.176875,5.70372623 11.03,5.77560123 11.03,5.90372623 L11.03,7.43810123 L5.905,7.43810123 C5.83625,7.43810123 5.78,7.49435123 5.78,7.56310123 L5.78,8.50060123 C5.78,8.56935123 5.83625,8.62560123 5.905,8.62560123 Z" id="形状" fill-opacity="0.88"></path>
                    </g>
                </g>
            </g>
        </g>
    </g>
</svg>