<?xml version="1.0" encoding="UTF-8"?>
<svg width="16px" height="16px" viewBox="0 0 16 16" version="1.1" xmlns="http://www.w3.org/2000/svg" xmlns:xlink="http://www.w3.org/1999/xlink">
    <title>icon_node_import</title>
    <g id="页面-1" stroke="none" stroke-width="1" fill="none" fill-rule="evenodd">
        <g id="我的盘活-数据流配置-初始" transform="translate(-104.000000, -254.000000)" fill="==" fill-rule="nonzero">
            <g id="编组-4" transform="translate(72.000000, 140.000000)">
                <g id="编组备份-24" transform="translate(20.000000, 104.000000)">
                    <g id="icon_node_import" transform="translate(12.000000, 10.000000)">
                        <rect id="矩形" fill-opacity="0" x="0" y="0" width="16" height="16"></rect>
                        <path d="M14.096875,11.834375 L13.25625,11.834375 C13.190625,11.834375 13.1359375,11.8890625 13.1359375,11.9546875 L13.1359375,12.9203125 L3.296875,12.9203125 L3.296875,3.0796875 L13.1375,3.0796875 L13.1375,4.0453125 C13.1375,4.1109375 13.1921875,4.165625 13.2578125,4.165625 L14.0984375,4.165625 C14.1640625,4.165625 14.21875,4.1125 14.21875,4.0453125 L14.21875,2.4796875 C14.21875,2.2140625 14.0046875,2 13.7390625,2 L2.696875,2 C2.43125,2 2.2171875,2.2140625 2.2171875,2.4796875 L2.2171875,13.5203125 C2.2171875,13.7859375 2.43125,14 2.696875,14 L13.7375,14 C14.003125,14 14.2171875,13.7859375 14.2171875,13.5203125 L14.2171875,11.9546875 C14.2171875,11.8875 14.1625,11.834375 14.096875,11.834375 Z M14.0909375,8.62560123 L8.9659375,8.62560123 L8.9659375,10.1599762 C8.9659375,10.2865387 8.8175,10.3599762 8.7190625,10.2802887 L6.02375,8.15216373 C5.945625,8.09122623 5.945625,7.97403873 6.02375,7.91310123 L8.7190625,5.78341373 C8.8190625,5.70372623 8.9659375,5.77560123 8.9659375,5.90372623 L8.9659375,7.43810123 L14.0909375,7.43810123 C14.1596875,7.43810123 14.2159375,7.49435123 14.2159375,7.56310123 L14.2159375,8.50060123 C14.2159375,8.56935123 14.1596875,8.62560123 14.0909375,8.62560123 Z" id="形状" fill-opacity="0.88" transform="translate(8.217969, 8.000000) scale(-1, 1) translate(-8.217969, -8.000000) "></path>
                    </g>
                </g>
            </g>
        </g>
    </g>
</svg>