<?xml version="1.0" encoding="UTF-8"?>
<svg width="16px" height="16px" viewBox="0 0 16 16" version="1.1" xmlns="http://www.w3.org/2000/svg" xmlns:xlink="http://www.w3.org/1999/xlink">
    <title>icon_file</title>
    <g id="页面-1" stroke="none" stroke-width="1" fill="none" fill-rule="evenodd">
        <g id="我的盘活-数据流配置-选择输入源" transform="translate(-154.000000, -360.000000)">
            <g id="编组-4" transform="translate(110.000000, 166.000000)">
                <g id="编组-2备份" transform="translate(20.000000, 188.000000)">
                    <g id="icon_file" transform="translate(24.000000, 6.000000)">
                        <polygon id="Rectangle备份-2" fill-opacity="0" fill="#000000" points="0 0 16 -1.03625442e-13 16 16 -4.6891677e-14 16"></polygon>
                        <path d="M13.353125,4.5109375 C13.446875,4.6046875 13.5,4.73125 13.5,4.8640625 L13.5,14.5 C13.5,14.7765625 13.2765625,15 13,15 L3,15 C2.7234375,15 2.5,14.7765625 2.5,14.5 L2.5,1.5 C2.5,1.2234375 2.7234375,1 3,1 L9.6359375,1 C9.76875,1 9.896875,1.053125 9.990625,1.146875 L13.353125,4.5109375 Z M12.346875,5.09375 L9.40625,2.153125 L9.40625,5.09375 L12.346875,5.09375 Z M5,7.53125 C4.93096441,7.53125 4.875,7.58721441 4.875,7.65625 L4.875,8.40625 C4.875,8.47528559 4.93096441,8.53125 5,8.53125 L11,8.53125 C11.0690356,8.53125 11.125,8.47528559 11.125,8.40625 L11.125,7.65625 C11.125,7.58721441 11.0690356,7.53125 11,7.53125 L5,7.53125 Z M5,9.65625 C4.93096441,9.65625 4.875,9.71221441 4.875,9.78125 L4.875,10.53125 C4.875,10.6002856 4.93096441,10.65625 5,10.65625 L7.875,10.65625 C7.94403559,10.65625 8,10.6002856 8,10.53125 L8,9.78125 C8,9.71221441 7.94403559,9.65625 7.875,9.65625 L5,9.65625 Z" id="形状" fill="#1677FF" fill-rule="nonzero"></path>
                    </g>
                </g>
            </g>
        </g>
    </g>
</svg>