<?xml version="1.0" encoding="UTF-8"?>
<svg width="16px" height="16px" viewBox="0 0 16 16" version="1.1" xmlns="http://www.w3.org/2000/svg" xmlns:xlink="http://www.w3.org/1999/xlink">
    <title>icon_folder</title>
    <g id="页面-1" stroke="none" stroke-width="1" fill="none" fill-rule="evenodd">
        <g id="我的盘活-数据流配置-选择输入源" transform="translate(-142.000000, -444.000000)">
            <g id="编组-4" transform="translate(110.000000, 166.000000)">
                <g id="编组-5" transform="translate(20.000000, 272.000000)">
                    <g id="icon_folder" transform="translate(12.000000, 6.000000)">
                        <polygon id="Rectangle备份-2" fill-opacity="0" fill="#000000" points="0 0 16 -1.03625442e-13 16 16 -4.6891677e-14 16"></polygon>
                        <path d="M13,4.7875 L7.390625,4.7875 L5.5578125,3.034375 C5.534375,3.0125 5.503125,3 5.471875,3 L1.5,3 C1.2234375,3 1,3.2234375 1,3.5 L1,12.75 C1,13.0265625 1.2234375,13.25 1.5,13.25 L13,13.25 C13.2765625,13.25 13.5,13.0265625 13.5,12.75 L13.5,5.2875 C13.5,5.0109375 13.2765625,4.7875 13,4.7875 Z" id="路径" fill="#FAAD14" fill-rule="nonzero"></path>
                    </g>
                </g>
            </g>
        </g>
    </g>
</svg>